<svg id="Layer_1" data-name="Layer 1" xmlns="http://www.w3.org/2000/svg" xmlns:xlink="http://www.w3.org/1999/xlink" viewBox="0 0 1280 720">
  <defs>
    <style>
      .cls-1, .cls-13, .cls-4, .cls-7 {
        fill: none;
      }

      .cls-11, .cls-2 {
        fill: #1b75bb;
      }

      .cls-3 {
        clip-path: url(#clip-path);
      }

      .cls-11, .cls-13, .cls-4, .cls-7 {
        stroke: #1b75bb;
        stroke-miterlimit: 10;
      }

      .cls-11, .cls-4 {
        stroke-width: 0.25px;
      }

      .cls-5 {
        clip-path: url(#clip-path-2);
      }

      .cls-6 {
        clip-path: url(#clip-path-3);
      }

      .cls-7 {
        stroke-width: 0.3px;
      }

      .cls-8 {
        clip-path: url(#clip-path-4);
      }

      .cls-9 {
        clip-path: url(#clip-path-5);
      }

      .cls-10 {
        clip-path: url(#clip-path-6);
      }

      .cls-12 {
        clip-path: url(#clip-path-7);
      }

      .cls-13 {
        stroke-width: 0.5px;
      }
    </style>
    <clipPath id="clip-path">
      <rect class="cls-1" x="109.59" y="256.64" width="191.7" height="124.48"/>
    </clipPath>
    <clipPath id="clip-path-2">
      <rect class="cls-1" x="822.02" y="138.36" width="191.7" height="124.48"/>
    </clipPath>
    <clipPath id="clip-path-3">
      <rect class="cls-1" x="1172.77" y="626.17" width="44.4" height="45.62"/>
    </clipPath>
    <clipPath id="clip-path-4">
      <rect class="cls-1" x="220.64" y="-31.84" width="44.4" height="45.62"/>
    </clipPath>
    <clipPath id="clip-path-5">
      <rect class="cls-1" x="675.84" y="-162.9" width="139.96" height="98.72"/>
    </clipPath>
    <clipPath id="clip-path-6">
      <rect class="cls-1" x="1102.02" y="794.36" width="191.7" height="124.48"/>
    </clipPath>
    <clipPath id="clip-path-7">
      <rect class="cls-1" x="476.59" y="380.8" width="44.4" height="45.62"/>
    </clipPath>
  </defs>
  <title>back2a_Artboard 1</title>
  <rect class="cls-2" x="609.92" y="475.75" width="54.87" height="54.87"/>
  <g class="cls-3">
    <g>
      <line class="cls-4" x1="231.17" y1="137.55" x2="18.72" y2="350"/>
      <line class="cls-4" x1="234.68" y1="139.34" x2="21.48" y2="352.54"/>
      <line class="cls-4" x1="238.2" y1="141.13" x2="24.24" y2="355.09"/>
      <line class="cls-4" x1="241.72" y1="142.92" x2="27" y2="357.63"/>
      <line class="cls-4" x1="245.23" y1="144.71" x2="29.76" y2="360.18"/>
      <line class="cls-4" x1="248.75" y1="146.5" x2="32.52" y2="362.72"/>
      <line class="cls-4" x1="252.27" y1="148.29" x2="35.29" y2="365.27"/>
      <line class="cls-4" x1="255.78" y1="150.07" x2="38.05" y2="367.81"/>
      <line class="cls-4" x1="259.3" y1="151.86" x2="40.81" y2="370.36"/>
      <line class="cls-4" x1="262.82" y1="153.65" x2="43.57" y2="372.9"/>
      <line class="cls-4" x1="266.34" y1="155.44" x2="46.33" y2="375.45"/>
      <line class="cls-4" x1="269.85" y1="157.23" x2="49.09" y2="377.99"/>
      <line class="cls-4" x1="273.37" y1="159.02" x2="51.85" y2="380.54"/>
      <line class="cls-4" x1="276.89" y1="160.81" x2="54.61" y2="383.08"/>
      <line class="cls-4" x1="280.4" y1="162.6" x2="57.37" y2="385.63"/>
      <line class="cls-4" x1="283.92" y1="164.39" x2="60.13" y2="388.17"/>
      <line class="cls-4" x1="287.44" y1="166.18" x2="62.89" y2="390.72"/>
      <line class="cls-4" x1="290.95" y1="167.96" x2="65.65" y2="393.26"/>
      <line class="cls-4" x1="294.47" y1="169.75" x2="68.42" y2="395.81"/>
      <line class="cls-4" x1="297.99" y1="171.54" x2="71.18" y2="398.35"/>
      <line class="cls-4" x1="301.5" y1="173.33" x2="73.94" y2="400.9"/>
      <line class="cls-4" x1="305.02" y1="175.12" x2="76.7" y2="403.44"/>
      <line class="cls-4" x1="308.54" y1="176.91" x2="79.46" y2="405.99"/>
      <line class="cls-4" x1="312.05" y1="178.7" x2="82.22" y2="408.53"/>
      <line class="cls-4" x1="315.57" y1="180.49" x2="84.98" y2="411.08"/>
      <line class="cls-4" x1="319.09" y1="182.28" x2="87.74" y2="413.62"/>
      <line class="cls-4" x1="322.6" y1="184.07" x2="90.5" y2="416.17"/>
      <line class="cls-4" x1="326.12" y1="185.85" x2="93.26" y2="418.71"/>
      <line class="cls-4" x1="329.64" y1="187.64" x2="96.02" y2="421.26"/>
      <line class="cls-4" x1="333.16" y1="189.43" x2="98.79" y2="423.8"/>
      <line class="cls-4" x1="336.67" y1="191.22" x2="101.55" y2="426.35"/>
      <line class="cls-4" x1="340.19" y1="193.01" x2="104.31" y2="428.89"/>
      <line class="cls-4" x1="343.71" y1="194.8" x2="107.07" y2="431.44"/>
      <line class="cls-4" x1="347.22" y1="196.59" x2="109.83" y2="433.98"/>
      <line class="cls-4" x1="350.74" y1="198.38" x2="112.59" y2="436.53"/>
      <line class="cls-4" x1="354.26" y1="200.17" x2="115.35" y2="439.07"/>
      <line class="cls-4" x1="357.77" y1="201.95" x2="118.11" y2="441.62"/>
      <line class="cls-4" x1="361.29" y1="203.74" x2="120.87" y2="444.16"/>
      <line class="cls-4" x1="364.81" y1="205.53" x2="123.63" y2="446.71"/>
      <line class="cls-4" x1="368.32" y1="207.32" x2="126.39" y2="449.25"/>
      <line class="cls-4" x1="371.84" y1="209.11" x2="129.16" y2="451.8"/>
      <line class="cls-4" x1="375.36" y1="210.9" x2="131.92" y2="454.34"/>
      <line class="cls-4" x1="378.87" y1="212.69" x2="134.68" y2="456.89"/>
      <line class="cls-4" x1="382.39" y1="214.48" x2="137.44" y2="459.43"/>
      <line class="cls-4" x1="385.91" y1="216.27" x2="140.2" y2="461.98"/>
      <line class="cls-4" x1="389.42" y1="218.06" x2="142.96" y2="464.52"/>
      <line class="cls-4" x1="392.94" y1="219.84" x2="145.72" y2="467.07"/>
      <line class="cls-4" x1="396.46" y1="221.63" x2="148.48" y2="469.61"/>
      <line class="cls-4" x1="399.98" y1="223.42" x2="151.24" y2="472.16"/>
      <line class="cls-4" x1="403.49" y1="225.21" x2="154" y2="474.7"/>
      <line class="cls-4" x1="407.01" y1="227" x2="156.76" y2="477.25"/>
      <line class="cls-4" x1="410.53" y1="228.79" x2="159.53" y2="479.79"/>
      <line class="cls-4" x1="414.04" y1="230.58" x2="162.29" y2="482.33"/>
      <line class="cls-4" x1="417.56" y1="232.37" x2="165.05" y2="484.88"/>
      <line class="cls-4" x1="421.08" y1="234.16" x2="167.81" y2="487.42"/>
      <line class="cls-4" x1="424.59" y1="235.95" x2="170.57" y2="489.97"/>
      <line class="cls-4" x1="428.11" y1="237.73" x2="173.33" y2="492.51"/>
      <line class="cls-4" x1="431.63" y1="239.52" x2="176.09" y2="495.06"/>
      <line class="cls-4" x1="435.14" y1="241.31" x2="178.85" y2="497.6"/>
      <line class="cls-4" x1="438.66" y1="243.1" x2="181.61" y2="500.15"/>
      <line class="cls-4" x1="442.18" y1="244.89" x2="184.37" y2="502.69"/>
      <line class="cls-4" x1="445.69" y1="246.68" x2="187.13" y2="505.24"/>
    </g>
  </g>
  <g class="cls-5">
    <g>
      <line class="cls-4" x1="943.6" y1="19.27" x2="731.15" y2="231.72"/>
      <line class="cls-4" x1="947.11" y1="21.06" x2="733.91" y2="234.26"/>
      <line class="cls-4" x1="950.63" y1="22.85" x2="736.67" y2="236.81"/>
      <line class="cls-4" x1="954.15" y1="24.64" x2="739.43" y2="239.35"/>
      <line class="cls-4" x1="957.66" y1="26.43" x2="742.19" y2="241.9"/>
      <line class="cls-4" x1="961.18" y1="28.22" x2="744.95" y2="244.44"/>
      <line class="cls-4" x1="964.7" y1="30" x2="747.71" y2="246.99"/>
      <line class="cls-4" x1="968.21" y1="31.79" x2="750.47" y2="249.53"/>
      <line class="cls-4" x1="971.73" y1="33.58" x2="753.24" y2="252.08"/>
      <line class="cls-4" x1="975.25" y1="35.37" x2="756" y2="254.62"/>
      <line class="cls-4" x1="978.76" y1="37.16" x2="758.76" y2="257.17"/>
      <line class="cls-4" x1="982.28" y1="38.95" x2="761.52" y2="259.71"/>
      <line class="cls-4" x1="985.8" y1="40.74" x2="764.28" y2="262.26"/>
      <line class="cls-4" x1="989.31" y1="42.53" x2="767.04" y2="264.8"/>
      <line class="cls-4" x1="992.83" y1="44.32" x2="769.8" y2="267.35"/>
      <line class="cls-4" x1="996.35" y1="46.1" x2="772.56" y2="269.89"/>
      <line class="cls-4" x1="999.86" y1="47.89" x2="775.32" y2="272.44"/>
      <line class="cls-4" x1="1003.38" y1="49.68" x2="778.08" y2="274.98"/>
      <line class="cls-4" x1="1006.9" y1="51.47" x2="780.84" y2="277.53"/>
      <line class="cls-4" x1="1010.42" y1="53.26" x2="783.61" y2="280.07"/>
      <line class="cls-4" x1="1013.93" y1="55.05" x2="786.37" y2="282.62"/>
      <line class="cls-4" x1="1017.45" y1="56.84" x2="789.13" y2="285.16"/>
      <line class="cls-4" x1="1020.97" y1="58.63" x2="791.89" y2="287.71"/>
      <line class="cls-4" x1="1024.48" y1="60.42" x2="794.65" y2="290.25"/>
      <line class="cls-4" x1="1028" y1="62.21" x2="797.41" y2="292.8"/>
      <line class="cls-4" x1="1031.52" y1="63.99" x2="800.17" y2="295.34"/>
      <line class="cls-4" x1="1035.03" y1="65.78" x2="802.93" y2="297.89"/>
      <line class="cls-4" x1="1038.55" y1="67.57" x2="805.69" y2="300.43"/>
      <line class="cls-4" x1="1042.07" y1="69.36" x2="808.45" y2="302.98"/>
      <line class="cls-4" x1="1045.58" y1="71.15" x2="811.21" y2="305.52"/>
      <line class="cls-4" x1="1049.1" y1="72.94" x2="813.97" y2="308.07"/>
      <line class="cls-4" x1="1052.62" y1="74.73" x2="816.74" y2="310.61"/>
      <line class="cls-4" x1="1056.13" y1="76.52" x2="819.5" y2="313.16"/>
      <line class="cls-4" x1="1059.65" y1="78.31" x2="822.26" y2="315.7"/>
      <line class="cls-4" x1="1063.17" y1="80.1" x2="825.02" y2="318.24"/>
      <line class="cls-4" x1="1066.68" y1="81.88" x2="827.78" y2="320.79"/>
      <line class="cls-4" x1="1070.2" y1="83.67" x2="830.54" y2="323.33"/>
      <line class="cls-4" x1="1073.72" y1="85.46" x2="833.3" y2="325.88"/>
      <line class="cls-4" x1="1077.24" y1="87.25" x2="836.06" y2="328.42"/>
      <line class="cls-4" x1="1080.75" y1="89.04" x2="838.82" y2="330.97"/>
      <line class="cls-4" x1="1084.27" y1="90.83" x2="841.58" y2="333.51"/>
      <line class="cls-4" x1="1087.79" y1="92.62" x2="844.34" y2="336.06"/>
      <line class="cls-4" x1="1091.3" y1="94.41" x2="847.11" y2="338.6"/>
      <line class="cls-4" x1="1094.82" y1="96.2" x2="849.87" y2="341.15"/>
      <line class="cls-4" x1="1098.34" y1="97.99" x2="852.63" y2="343.69"/>
      <line class="cls-4" x1="1101.85" y1="99.77" x2="855.39" y2="346.24"/>
      <line class="cls-4" x1="1105.37" y1="101.56" x2="858.15" y2="348.78"/>
      <line class="cls-4" x1="1108.89" y1="103.35" x2="860.91" y2="351.33"/>
      <line class="cls-4" x1="1112.4" y1="105.14" x2="863.67" y2="353.87"/>
      <line class="cls-4" x1="1115.92" y1="106.93" x2="866.43" y2="356.42"/>
      <line class="cls-4" x1="1119.44" y1="108.72" x2="869.19" y2="358.96"/>
      <line class="cls-4" x1="1122.95" y1="110.51" x2="871.95" y2="361.51"/>
      <line class="cls-4" x1="1126.47" y1="112.3" x2="874.71" y2="364.05"/>
      <line class="cls-4" x1="1129.99" y1="114.09" x2="877.48" y2="366.6"/>
      <line class="cls-4" x1="1133.5" y1="115.87" x2="880.24" y2="369.14"/>
      <line class="cls-4" x1="1137.02" y1="117.66" x2="883" y2="371.69"/>
      <line class="cls-4" x1="1140.54" y1="119.45" x2="885.76" y2="374.23"/>
      <line class="cls-4" x1="1144.06" y1="121.24" x2="888.52" y2="376.78"/>
      <line class="cls-4" x1="1147.57" y1="123.03" x2="891.28" y2="379.32"/>
      <line class="cls-4" x1="1151.09" y1="124.82" x2="894.04" y2="381.87"/>
      <line class="cls-4" x1="1154.61" y1="126.61" x2="896.8" y2="384.41"/>
      <line class="cls-4" x1="1158.12" y1="128.4" x2="899.56" y2="386.96"/>
    </g>
  </g>
  <rect class="cls-2" x="172.99" y="664.43" width="19.21" height="19.21"/>
  <rect class="cls-2" x="410.61" y="56.52" width="37.44" height="37.44"/>
  <g class="cls-6">
    <g>
      <line class="cls-7" x1="1196.06" y1="594.95" x2="1121.35" y2="667.31"/>
      <line class="cls-7" x1="1199.57" y1="596.72" x2="1124.12" y2="669.79"/>
      <line class="cls-7" x1="1203.08" y1="598.48" x2="1126.89" y2="672.27"/>
      <line class="cls-7" x1="1206.59" y1="600.25" x2="1129.67" y2="674.76"/>
      <line class="cls-7" x1="1210.1" y1="602.02" x2="1132.44" y2="677.24"/>
      <line class="cls-7" x1="1213.61" y1="603.79" x2="1135.21" y2="679.72"/>
      <line class="cls-7" x1="1217.12" y1="605.55" x2="1137.98" y2="682.2"/>
      <line class="cls-7" x1="1220.63" y1="607.32" x2="1140.76" y2="684.68"/>
      <line class="cls-7" x1="1224.14" y1="609.09" x2="1143.53" y2="687.16"/>
      <line class="cls-7" x1="1227.65" y1="610.86" x2="1146.3" y2="689.64"/>
      <line class="cls-7" x1="1231.16" y1="612.62" x2="1149.07" y2="692.13"/>
      <line class="cls-7" x1="1234.67" y1="614.39" x2="1151.85" y2="694.61"/>
      <line class="cls-7" x1="1238.18" y1="616.16" x2="1154.62" y2="697.09"/>
      <line class="cls-7" x1="1241.69" y1="617.92" x2="1157.39" y2="699.57"/>
      <line class="cls-7" x1="1245.2" y1="619.69" x2="1160.16" y2="702.05"/>
      <line class="cls-7" x1="1248.71" y1="621.46" x2="1162.94" y2="704.53"/>
      <line class="cls-7" x1="1252.22" y1="623.23" x2="1165.71" y2="707.01"/>
      <line class="cls-7" x1="1255.73" y1="624.99" x2="1168.48" y2="709.49"/>
      <line class="cls-7" x1="1259.24" y1="626.76" x2="1171.25" y2="711.98"/>
      <line class="cls-7" x1="1262.75" y1="628.53" x2="1174.03" y2="714.46"/>
      <line class="cls-7" x1="1266.26" y1="630.3" x2="1176.8" y2="716.94"/>
      <line class="cls-7" x1="1269.77" y1="632.06" x2="1179.57" y2="719.42"/>
      <line class="cls-7" x1="1273.28" y1="633.83" x2="1182.34" y2="721.9"/>
    </g>
  </g>
  <rect class="cls-2" x="847.01" y="361.22" width="11.63" height="11.63"/>
  <polygon class="cls-4" points="41.24 17.68 32.29 9.17 44.34 4.96 41.24 17.68"/>
  <rect class="cls-2" x="36.36" y="561.85" width="7.1" height="7.1"/>
  <rect class="cls-2" x="946.72" y="656.15" width="11.63" height="11.63"/>
  <polygon class="cls-4" points="932.73 566.95 917.73 555.61 935.23 547.19 932.73 566.95"/>
  <g class="cls-8">
    <g>
      <line class="cls-4" x1="243.94" y1="-63.07" x2="169.22" y2="9.29"/>
      <line class="cls-4" x1="247.44" y1="-61.3" x2="171.99" y2="11.78"/>
      <line class="cls-4" x1="250.95" y1="-59.53" x2="174.77" y2="14.26"/>
      <line class="cls-4" x1="254.46" y1="-57.77" x2="177.54" y2="16.74"/>
      <line class="cls-4" x1="257.97" y1="-56" x2="180.31" y2="19.22"/>
      <line class="cls-4" x1="261.48" y1="-54.23" x2="183.08" y2="21.7"/>
      <line class="cls-4" x1="264.99" y1="-52.46" x2="185.86" y2="24.18"/>
      <line class="cls-4" x1="268.5" y1="-50.7" x2="188.63" y2="26.66"/>
      <line class="cls-4" x1="272.01" y1="-48.93" x2="191.4" y2="29.15"/>
      <line class="cls-4" x1="275.52" y1="-47.16" x2="194.17" y2="31.63"/>
      <line class="cls-4" x1="279.03" y1="-45.39" x2="196.95" y2="34.11"/>
      <line class="cls-4" x1="282.54" y1="-43.63" x2="199.72" y2="36.59"/>
      <line class="cls-4" x1="286.05" y1="-41.86" x2="202.49" y2="39.07"/>
      <line class="cls-4" x1="289.56" y1="-40.09" x2="205.26" y2="41.55"/>
      <line class="cls-4" x1="293.07" y1="-38.33" x2="208.04" y2="44.03"/>
      <line class="cls-4" x1="296.58" y1="-36.56" x2="210.81" y2="46.51"/>
      <line class="cls-4" x1="300.09" y1="-34.79" x2="213.58" y2="49"/>
      <line class="cls-4" x1="303.6" y1="-33.02" x2="216.35" y2="51.48"/>
      <line class="cls-4" x1="307.11" y1="-31.26" x2="219.13" y2="53.96"/>
      <line class="cls-4" x1="310.62" y1="-29.49" x2="221.9" y2="56.44"/>
      <line class="cls-4" x1="314.13" y1="-27.72" x2="224.67" y2="58.92"/>
      <line class="cls-4" x1="317.64" y1="-25.95" x2="227.44" y2="61.4"/>
      <line class="cls-4" x1="321.15" y1="-24.19" x2="230.22" y2="63.88"/>
    </g>
  </g>
  <g class="cls-9">
    <g>
      <line class="cls-4" x1="893.18" y1="-204.03" x2="687.45" y2="1.7"/>
      <line class="cls-4" x1="896.71" y1="-202.23" x2="690.22" y2="4.26"/>
      <line class="cls-4" x1="900.24" y1="-200.43" x2="692.99" y2="6.81"/>
      <line class="cls-4" x1="903.77" y1="-198.64" x2="695.76" y2="9.37"/>
      <line class="cls-4" x1="907.3" y1="-196.84" x2="698.54" y2="11.93"/>
      <line class="cls-4" x1="910.84" y1="-195.04" x2="701.31" y2="14.48"/>
      <line class="cls-4" x1="914.37" y1="-193.25" x2="704.08" y2="17.04"/>
      <line class="cls-4" x1="917.9" y1="-191.45" x2="706.86" y2="19.59"/>
      <line class="cls-4" x1="921.43" y1="-189.65" x2="709.63" y2="22.15"/>
      <line class="cls-4" x1="924.97" y1="-187.86" x2="712.4" y2="24.71"/>
      <line class="cls-4" x1="928.5" y1="-186.06" x2="715.18" y2="27.26"/>
      <line class="cls-4" x1="932.03" y1="-184.26" x2="717.95" y2="29.82"/>
      <line class="cls-4" x1="935.56" y1="-182.47" x2="720.72" y2="32.37"/>
      <line class="cls-4" x1="939.09" y1="-180.67" x2="723.49" y2="34.93"/>
      <line class="cls-4" x1="942.63" y1="-178.87" x2="726.27" y2="37.49"/>
      <line class="cls-4" x1="946.16" y1="-177.08" x2="729.04" y2="40.04"/>
    </g>
  </g>
  <rect class="cls-2" x="1159.03" y="142.71" width="13.18" height="13.18"/>
  <polygon class="cls-4" points="1041.79 382.21 1021.51 366.88 1045.18 355.48 1041.79 382.21"/>
  <g class="cls-10">
    <g>
      <line class="cls-4" x1="1223.6" y1="675.27" x2="1011.15" y2="887.72"/>
      <line class="cls-4" x1="1227.11" y1="677.06" x2="1013.91" y2="890.26"/>
      <line class="cls-4" x1="1230.63" y1="678.85" x2="1016.67" y2="892.81"/>
      <line class="cls-4" x1="1234.15" y1="680.64" x2="1019.43" y2="895.35"/>
      <line class="cls-4" x1="1237.66" y1="682.43" x2="1022.19" y2="897.9"/>
      <line class="cls-4" x1="1241.18" y1="684.22" x2="1024.95" y2="900.44"/>
      <line class="cls-4" x1="1244.7" y1="686" x2="1027.71" y2="902.99"/>
      <line class="cls-4" x1="1248.21" y1="687.79" x2="1030.47" y2="905.53"/>
      <line class="cls-4" x1="1251.73" y1="689.58" x2="1033.24" y2="908.08"/>
      <line class="cls-4" x1="1255.25" y1="691.37" x2="1036" y2="910.62"/>
      <line class="cls-4" x1="1258.76" y1="693.16" x2="1038.76" y2="913.17"/>
      <line class="cls-4" x1="1262.28" y1="694.95" x2="1041.52" y2="915.71"/>
      <line class="cls-4" x1="1265.8" y1="696.74" x2="1044.28" y2="918.26"/>
      <line class="cls-4" x1="1269.31" y1="698.53" x2="1047.04" y2="920.8"/>
      <line class="cls-4" x1="1272.83" y1="700.32" x2="1049.8" y2="923.35"/>
      <line class="cls-4" x1="1276.35" y1="702.1" x2="1052.56" y2="925.89"/>
      <line class="cls-4" x1="1279.86" y1="703.89" x2="1055.32" y2="928.44"/>
      <line class="cls-4" x1="1283.38" y1="705.68" x2="1058.08" y2="930.98"/>
      <line class="cls-4" x1="1286.9" y1="707.47" x2="1060.84" y2="933.53"/>
      <line class="cls-4" x1="1290.42" y1="709.26" x2="1063.61" y2="936.07"/>
      <line class="cls-4" x1="1293.93" y1="711.05" x2="1066.37" y2="938.62"/>
      <line class="cls-4" x1="1297.45" y1="712.84" x2="1069.13" y2="941.16"/>
      <line class="cls-4" x1="1300.97" y1="714.63" x2="1071.89" y2="943.71"/>
      <line class="cls-4" x1="1304.48" y1="716.42" x2="1074.65" y2="946.25"/>
      <line class="cls-4" x1="1308" y1="718.21" x2="1077.41" y2="948.8"/>
      <line class="cls-4" x1="1311.52" y1="719.99" x2="1080.17" y2="951.34"/>
    </g>
  </g>
  <rect class="cls-2" x="416.99" y="565.43" width="19.21" height="19.21"/>
  <rect class="cls-4" x="871.27" y="86.9" width="13.18" height="13.18"/>
  <polygon class="cls-4" points="1177.28 -3.82 1186.47 12.58 1167.06 13.28 1177.28 -3.82"/>
  <rect class="cls-11" x="1164.52" y="329.65" width="28.87" height="28.87"/>
  <g class="cls-12">
    <g>
      <line class="cls-4" x1="499.89" y1="349.57" x2="425.17" y2="421.94"/>
      <line class="cls-4" x1="503.4" y1="351.34" x2="427.94" y2="424.42"/>
      <line class="cls-4" x1="506.91" y1="353.11" x2="430.72" y2="426.9"/>
      <line class="cls-4" x1="510.41" y1="354.88" x2="433.49" y2="429.38"/>
      <line class="cls-4" x1="513.92" y1="356.64" x2="436.26" y2="431.86"/>
      <line class="cls-4" x1="517.43" y1="358.41" x2="439.03" y2="434.34"/>
      <line class="cls-4" x1="520.94" y1="360.18" x2="441.81" y2="436.83"/>
      <line class="cls-4" x1="524.45" y1="361.95" x2="444.58" y2="439.31"/>
      <line class="cls-4" x1="527.96" y1="363.71" x2="447.35" y2="441.79"/>
      <line class="cls-4" x1="531.47" y1="365.48" x2="450.12" y2="444.27"/>
      <line class="cls-4" x1="534.98" y1="367.25" x2="452.9" y2="446.75"/>
      <line class="cls-4" x1="538.49" y1="369.02" x2="455.67" y2="449.23"/>
      <line class="cls-4" x1="542" y1="370.78" x2="458.44" y2="451.71"/>
      <line class="cls-4" x1="545.51" y1="372.55" x2="461.21" y2="454.19"/>
      <line class="cls-4" x1="549.02" y1="374.32" x2="463.99" y2="456.68"/>
      <line class="cls-4" x1="552.53" y1="376.08" x2="466.76" y2="459.16"/>
      <line class="cls-4" x1="556.04" y1="377.85" x2="469.53" y2="461.64"/>
      <line class="cls-4" x1="559.55" y1="379.62" x2="472.3" y2="464.12"/>
      <line class="cls-4" x1="563.06" y1="381.39" x2="475.08" y2="466.6"/>
      <line class="cls-4" x1="566.57" y1="383.15" x2="477.85" y2="469.08"/>
      <line class="cls-4" x1="570.08" y1="384.92" x2="480.62" y2="471.56"/>
      <line class="cls-4" x1="573.59" y1="386.69" x2="483.39" y2="474.05"/>
      <line class="cls-4" x1="577.1" y1="388.46" x2="486.17" y2="476.53"/>
    </g>
  </g>
  <rect class="cls-13" x="791.04" y="652.79" width="19.06" height="19.06"/>
</svg>
